<?xml version="1.0" encoding="UTF-8"?>
<svg id="_Слой_2" data-name="Слой 2" xmlns="http://www.w3.org/2000/svg" viewBox="0 0 88.24 34.67">
  <defs>
    <style>
      .cls-1 {
        fill: #fff;
      }
    </style>
  </defs>
  <g id="Layer_1" data-name="Layer 1">
    <g>
      <g id="QICtc0">
        <g>
          <path class="cls-1" d="M63.37,33.62c-.26-2.08-1.03-4-1.54-5.98-.19-.74-.52-1.4-1.08-1.94-.77-.73-1.7-1.06-2.76-1.06-5.34,0-10.68,0-16.02,0-4.26,0-8.53,0-12.79,0-2.01,0-3.38,1.03-3.92,2.97-.42,1.47-.85,2.94-1.25,4.42-.14,.51-.2,1.04-.31,1.6-.48,0-1,0-1.52,0-1.22,0-2.44,.01-3.65-.04-.91-.04-1.66-.82-1.69-1.73-.04-1.53-.03-3.07-.03-4.6,0-7.06,0-14.12,0-21.18,0-1.44-.01-2.87,.03-4.31,.03-.9,.8-1.65,1.69-1.74,.21-.02,.41-.03,.62-.03C34.75,0,50.34,0,65.92,0c.87,0,1.74-.01,2.61,.04,.91,.05,1.69,.82,1.71,1.71,.04,1.65,.03,3.31,.03,4.96,0,6.12,0,12.25,0,18.37,0,2.14,0,4.29,0,6.43,0,1.05-.52,1.78-1.44,2.03-.2,.05-.41,.08-.61,.08-1.58,0-3.15,0-4.73,0-.04,0-.08,0-.11-.01ZM21.5,22.38h44.08V4.89H21.5V22.38Zm46.46,9.89c.49,0,.91-.44,.89-.93-.01-.48-.42-.88-.91-.88-.5,0-.91,.41-.9,.91,0,.5,.42,.91,.92,.9Zm-48.86,0c.49,0,.89-.39,.91-.88,.02-.51-.38-.93-.88-.94-.49,0-.9,.38-.91,.88-.01,.51,.38,.93,.88,.94ZM67.94,3.32c.5,0,.92-.41,.92-.91,0-.49-.41-.88-.9-.89-.51,0-.91,.4-.91,.9,0,.49,.4,.89,.89,.89ZM19.1,1.53c-.49,0-.89,.39-.89,.89,0,.51,.4,.91,.9,.91,.49,0,.89-.39,.89-.89,0-.51-.39-.91-.9-.91Z"/>
          <path class="cls-1" d="M43.55,34.67c-5.25,0-10.51,0-15.76,0-.52,0-1-.09-1.33-.54-.27-.35-.35-.75-.24-1.17,.46-1.66,.93-3.32,1.42-4.98,.17-.57,.59-.9,1.2-.95,.19-.02,.39-.02,.59-.02,9.48,0,18.97,0,28.45,0,.41,0,.83,0,1.13,.31,.2,.2,.39,.46,.47,.72,.48,1.61,.94,3.23,1.39,4.85,.25,.91-.29,1.66-1.23,1.75-.09,0-.17,.01-.26,.01-5.28,0-10.55,0-15.83,0Zm-12.99-2.26c0-.62-.51-1.11-1.13-1.1-.62,0-1.1,.51-1.09,1.13,0,.61,.5,1.09,1.11,1.09,.62,0,1.12-.5,1.11-1.12Zm28.2,0c0-.61-.49-1.11-1.08-1.11-.64,0-1.15,.51-1.14,1.13,0,.6,.51,1.09,1.11,1.09,.62,0,1.12-.49,1.11-1.11Zm-5.4-3.79c-.51-.02-.93,.37-.94,.88,0,.5,.37,.9,.86,.92,.5,.02,.93-.38,.94-.88,.01-.48-.39-.9-.87-.92Zm-18.69,.88c0-.5-.4-.88-.89-.89-.5,0-.92,.41-.91,.91,0,.49,.41,.89,.9,.89,.51,0,.91-.41,.9-.91Z"/>
          <path class="cls-1" d="M43.58,19.62c-4.63,0-9.26,0-13.9,0-1.73,0-3.16-.97-3.73-2.5-.9-2.42,.86-5.05,3.43-5.14,.14,0,.28,0,.42,0,9.18,0,18.35,.01,27.53-.01,2.19,0,3.57,1.51,3.91,2.92,.56,2.31-1.08,4.58-3.45,4.73-.16,.01-.33,.01-.49,.01-4.58,0-9.16,0-13.73,0Zm-11.41-5.08c.05-.37-.07-.52-.34-.54-.42-.03-.71-.22-.86-.62-.12-.3-.34-.34-.6-.18-.34,.22-.66,.2-1,0-.33-.19-.47-.15-.62,.2-.16,.37-.41,.56-.81,.59-.3,.02-.45,.18-.37,.48,.11,.43,0,.76-.34,1.04-.2,.17-.22,.39-.01,.56,.35,.29,.46,.63,.35,1.07-.07,.26,.07,.43,.33,.45,.42,.03,.71,.21,.86,.62,.11,.28,.33,.35,.58,.19,.36-.23,.7-.23,1.06,0,.25,.16,.47,.09,.58-.19,.16-.4,.44-.59,.86-.62,.26-.02,.41-.19,.34-.45-.12-.44,.01-.78,.35-1.07,.19-.16,.2-.37,.01-.54-.33-.3-.54-.63-.38-.99Zm22.94,2.5c-.06,.42,.12,.54,.38,.56,.39,.03,.63,.21,.79,.57,.16,.35,.3,.4,.65,.2,.34-.2,.64-.18,.97,0,.34,.19,.49,.14,.64-.22,.15-.35,.39-.52,.76-.56,.4-.05,.49-.15,.4-.54-.09-.41,.03-.69,.33-.95,.22-.19,.24-.42,.01-.61-.33-.27-.44-.59-.33-1.01,.07-.28-.05-.47-.36-.49-.41-.02-.68-.22-.83-.61-.11-.29-.34-.37-.6-.19-.35,.23-.68,.23-1.03,0-.25-.16-.47-.12-.58,.17-.16,.42-.45,.61-.88,.64-.28,.02-.39,.2-.33,.45,.1,.44,0,.78-.36,1.07-.19,.16-.2,.37,0,.54,.35,.3,.52,.64,.38,.98Z"/>
          <path class="cls-1" d="M33.85,8.86c-2.99,0-5.98,0-8.97,0-.74,0-1.25-.37-1.37-.99-.16-.77,.34-1.48,1.16-1.53,.75-.05,1.5-.02,2.25-.02,5.25,0,10.5,0,15.75,0,.24,0,.48,.01,.71,.08,.59,.18,.93,.76,.84,1.38-.08,.6-.56,1.06-1.17,1.07-1.15,.02-2.3,.01-3.46,.01-1.91,0-3.83,0-5.74,0Z"/>
        </g>
      </g>
      <g id="LgmKhf.tif">
        <g>
          <path class="cls-1" d="M88.24,17.19c-.07,4.21-1.53,8.34-4.48,11.95-.6,.74-1.5,.88-2.18,.36-.89-.68-1.06-1.58-.41-2.4,1.1-1.39,2.02-2.87,2.65-4.53,.96-2.51,1.3-5.09,.98-7.76-.36-3.02-1.51-5.72-3.39-8.11-.19-.24-.4-.46-.58-.7-.58-.76-.42-1.63,.4-2.31,.66-.54,1.57-.46,2.15,.22,2.06,2.36,3.49,5.06,4.26,8.1,.4,1.56,.59,3.15,.59,5.2Z"/>
          <path class="cls-1" d="M80.9,16.68c0,2.69-.8,5.09-2.36,7.23-.51,.71-1.41,.88-2.1,.42-.86-.57-1.09-1.48-.64-2.28,.44-.77,.95-1.52,1.24-2.34,1.02-2.9,.62-5.63-1.14-8.16-.2-.29-.43-.59-.55-.91-.25-.73,.19-1.57,.97-1.96,.66-.33,1.42-.14,1.92,.48,1.75,2.22,2.64,4.73,2.65,7.52Z"/>
        </g>
      </g>
      <g id="LgmKhf.tif-2" data-name="LgmKhf.tif">
        <g>
          <path class="cls-1" d="M0,15.04C.07,10.83,1.53,6.7,4.48,3.09c.6-.74,1.5-.88,2.18-.36,.89,.68,1.06,1.58,.41,2.4-1.1,1.39-2.02,2.87-2.65,4.53-.96,2.51-1.3,5.09-.98,7.76,.36,3.02,1.51,5.72,3.39,8.11,.19,.24,.4,.46,.58,.7,.58,.76,.42,1.63-.4,2.31-.66,.54-1.57,.46-2.15-.22-2.06-2.36-3.49-5.06-4.26-8.1C.2,18.68,0,17.09,0,15.04Z"/>
          <path class="cls-1" d="M7.34,15.55c0-2.69,.8-5.09,2.36-7.23,.51-.71,1.41-.88,2.1-.42,.86,.57,1.09,1.48,.64,2.28-.44,.77-.95,1.52-1.24,2.34-1.02,2.9-.62,5.63,1.14,8.16,.2,.29,.43,.59,.55,.91,.25,.73-.19,1.57-.97,1.96-.66,.33-1.42,.14-1.92-.48-1.75-2.22-2.64-4.73-2.65-7.52Z"/>
        </g>
      </g>
    </g>
  </g>
</svg>