<?xml version="1.0" encoding="UTF-8"?>
<svg id="_Слой_2" data-name="Слой 2" xmlns="http://www.w3.org/2000/svg" viewBox="0 0 62.78 40.72">
  <defs>
    <style>
      .cls-1 {
        fill: #fff;
      }
    </style>
  </defs>
  <g id="Layer_1" data-name="Layer 1">
    <g id="QICtc0">
      <g>
        <path class="cls-1" d="M54.68,39.48c-.3-2.45-1.21-4.7-1.81-7.02-.22-.87-.61-1.65-1.27-2.27-.91-.86-2-1.24-3.24-1.24-6.27,0-12.54,0-18.82,0-5.01,0-10.02,0-15.02,0-2.36,0-3.96,1.21-4.61,3.49-.49,1.73-1,3.45-1.46,5.19-.16,.6-.24,1.22-.36,1.88-.56,0-1.17,0-1.78,0-1.43-.01-2.86,.02-4.29-.05-1.06-.05-1.95-.97-1.98-2.04C-.01,35.61,0,33.81,0,32.01,0,23.72,0,15.43,0,7.14c0-1.69-.01-3.37,.04-5.06C.07,1.02,.98,.14,2.03,.04,2.27,.01,2.51,0,2.75,0,21.06,0,39.36,0,57.67,0c1.02,0,2.04-.01,3.06,.04,1.06,.06,1.98,.96,2.01,2.01,.05,1.94,.04,3.88,.04,5.82,0,7.19,0,14.38,0,21.58,0,2.52,0,5.03,0,7.55,0,1.24-.61,2.09-1.69,2.39-.23,.06-.48,.1-.72,.1-1.85,0-3.7,0-5.56,0-.05,0-.1-.01-.13-.01ZM5.5,26.29H57.27V5.74H5.5V26.29Zm54.56,11.62c.58,0,1.07-.52,1.05-1.09-.02-.57-.5-1.04-1.06-1.04-.58,0-1.07,.48-1.06,1.07,0,.58,.49,1.07,1.08,1.06Zm-57.39,0c.57,0,1.05-.45,1.07-1.03,.02-.6-.44-1.09-1.04-1.1-.57,0-1.05,.45-1.07,1.03-.02,.6,.45,1.09,1.04,1.1ZM60.04,3.9c.59,0,1.08-.48,1.08-1.06,0-.57-.48-1.04-1.06-1.04-.6,0-1.07,.47-1.07,1.06,0,.58,.47,1.04,1.05,1.04ZM2.68,1.79c-.58,0-1.04,.46-1.05,1.04,0,.59,.47,1.07,1.06,1.07,.58,0,1.04-.46,1.05-1.04,0-.6-.46-1.07-1.06-1.07Z"/>
        <path class="cls-1" d="M31.39,40.72c-6.17,0-12.34,0-18.51,0-.61,0-1.17-.11-1.57-.63-.32-.41-.42-.88-.28-1.38,.54-1.95,1.09-3.91,1.67-5.85,.2-.67,.7-1.05,1.41-1.12,.23-.02,.46-.02,.69-.02,11.14,0,22.28,0,33.42,0,.48,0,.97,0,1.33,.37,.23,.24,.46,.53,.55,.85,.57,1.89,1.11,3.79,1.63,5.7,.29,1.07-.34,1.95-1.44,2.06-.1,.01-.2,.02-.31,.02-6.2,0-12.39,0-18.59,0Zm-15.26-2.66c0-.72-.6-1.3-1.32-1.3-.73,0-1.29,.59-1.28,1.33,.01,.71,.58,1.27,1.3,1.28,.73,0,1.31-.59,1.31-1.31Zm33.13,0c0-.72-.57-1.3-1.27-1.3-.75,0-1.35,.59-1.34,1.33,.01,.7,.6,1.28,1.3,1.28,.73,0,1.31-.57,1.31-1.3Zm-6.34-4.45c-.6-.02-1.09,.44-1.1,1.03-.01,.58,.43,1.05,1.02,1.08,.59,.03,1.09-.44,1.11-1.03,.02-.56-.45-1.06-1.02-1.08Zm-21.95,1.04c0-.58-.46-1.04-1.05-1.04-.59,0-1.08,.48-1.07,1.07,0,.57,.49,1.04,1.06,1.04,.59,0,1.07-.48,1.06-1.07Z"/>
        <path class="cls-1" d="M31.43,23.04c-5.44,0-10.88,0-16.32,0-2.03,0-3.71-1.14-4.38-2.94-1.06-2.85,1.01-5.93,4.03-6.04,.17,0,.33,0,.5,0,10.78,0,21.56,.02,32.34-.01,2.57,0,4.19,1.77,4.6,3.42,.66,2.71-1.27,5.38-4.06,5.56-.19,.01-.38,.01-.57,.01-5.38,0-10.75,0-16.13,0Zm-13.4-5.97c.06-.44-.09-.61-.4-.63-.49-.04-.83-.26-1.01-.73-.14-.35-.41-.41-.71-.21-.4,.26-.77,.24-1.18,0-.39-.22-.55-.18-.73,.23-.19,.44-.49,.66-.95,.69-.35,.02-.53,.21-.44,.56,.13,.5-.01,.89-.4,1.22-.24,.2-.25,.46-.01,.66,.41,.34,.54,.74,.42,1.25-.08,.31,.09,.51,.39,.53,.5,.03,.83,.25,1.01,.73,.12,.32,.39,.41,.68,.22,.42-.27,.82-.27,1.25,0,.3,.19,.55,.11,.68-.22,.18-.47,.51-.7,1.02-.73,.3-.02,.48-.22,.4-.52-.14-.52,.01-.91,.41-1.25,.22-.19,.24-.43,.02-.63-.39-.35-.64-.74-.44-1.17Zm26.95,2.93c-.07,.5,.14,.63,.45,.65,.45,.03,.74,.24,.93,.67,.18,.42,.36,.47,.76,.24,.4-.23,.75-.22,1.14,0,.4,.23,.57,.17,.75-.25,.18-.41,.46-.61,.9-.66,.47-.06,.58-.17,.48-.63-.1-.48,.04-.81,.39-1.11,.26-.22,.28-.49,.01-.72-.38-.32-.52-.7-.39-1.19,.09-.33-.06-.55-.42-.57-.48-.03-.8-.26-.98-.72-.13-.34-.39-.43-.71-.22-.41,.27-.8,.27-1.21,0-.29-.19-.55-.14-.68,.2-.19,.49-.53,.72-1.04,.75-.33,.02-.46,.23-.39,.53,.12,.52-.01,.92-.42,1.25-.23,.19-.23,.44,0,.63,.41,.35,.61,.75,.44,1.15Z"/>
        <path class="cls-1" d="M20,10.41c-3.51,0-7.02,0-10.54,0-.87,0-1.47-.44-1.61-1.17-.19-.91,.4-1.73,1.36-1.79,.88-.06,1.76-.03,2.64-.03,6.17,0,12.34,0,18.5,0,.28,0,.57,.02,.83,.09,.69,.21,1.09,.89,.99,1.62-.09,.7-.66,1.25-1.37,1.26-1.35,.02-2.71,.01-4.06,.01-2.25,0-4.5,0-6.74,0Z"/>
      </g>
    </g>
  </g>
</svg>