<svg xmlns="http://www.w3.org/2000/svg" viewBox="0 0 14.18 10.61"><defs><style>.cls-1{fill:#fff;stroke:#fff;stroke-miterlimit:10;stroke-width:0.57px;}</style></defs><g id="Layer_2" data-name="Layer 2"><g id="Layer_1-2" data-name="Layer 1"><g id="kqEnyu"><path class="cls-1" d="M5.63.67C5.2.8,4.76.88,4.35,1s-.78.34-1.17.52C3,1.64,2.85,1.8,3,2s.29.15.48.07a7.49,7.49,0,0,1,7.23,0c.2.11.37.15.5-.07s0-.35-.22-.45A7.62,7.62,0,0,0,8.78.75l-.2,0s0,0,0,0C8.61.34,8.69.28,9,.32A7,7,0,0,1,11.43,1a2.24,2.24,0,0,1,1,1A15.11,15.11,0,0,1,13.6,5.66c.13.76.2,1.52.28,2.28a.91.91,0,0,1-.26.78A3.81,3.81,0,0,1,12,9.85c-.56.19-1.15.3-1.71.46a.45.45,0,0,1-.52-.22,5.24,5.24,0,0,0-.44-.61c.42-.17.83-.3,1.22-.48a7.91,7.91,0,0,0,.93-.56A.29.29,0,0,0,11.58,8a.29.29,0,0,0-.43,0,7.63,7.63,0,0,1-7.32.48A4.55,4.55,0,0,1,3.05,8c-.17-.11-.33-.13-.46,0a.28.28,0,0,0,.11.44c.59.3,1.17.58,1.76.89a3.54,3.54,0,0,1,.39.13c-.19.26-.37.52-.56.74a.58.58,0,0,1-.31.11A6,6,0,0,1,1.05,9.22,3.48,3.48,0,0,1,.77,9,1.45,1.45,0,0,1,.29,7.72,17.77,17.77,0,0,1,1.57,2.34,2.45,2.45,0,0,1,3.09.86a20,20,0,0,1,2-.54C5.44.23,5.52.3,5.63.67ZM4.05,5.85s0,0,.06.05v.17A1.11,1.11,0,0,0,4.83,7a.92.92,0,0,0,1-.24A1.32,1.32,0,0,0,5.83,5a.93.93,0,0,0-1.41,0A4.83,4.83,0,0,0,4.05,5.85Zm6,0A1.08,1.08,0,0,0,8.76,4.73,1.15,1.15,0,0,0,8,5.9a1.14,1.14,0,0,0,.82,1.15A1.09,1.09,0,0,0,10,5.88Z"/></g></g></g></svg>