<svg xmlns="http://www.w3.org/2000/svg" viewBox="0 0 13.82 11.18"><defs><style>.cls-1{fill:#fff;stroke:#fff;stroke-miterlimit:10;stroke-width:0.57px;}</style></defs><g id="Layer_2" data-name="Layer 2"><g id="Layer_1-2" data-name="Layer 1"><g id="OWeILb"><path class="cls-1" d="M7.47.3,8.1.4a6.69,6.69,0,0,1,4.48,2.76,6.85,6.85,0,0,1,.9,1.74.89.89,0,0,1-.16.88,10.77,10.77,0,0,1-2.27,2.15h0V4c0-.52-.21-.73-.73-.73H9.51a.59.59,0,0,0-.63.65V8.63c0,.52-.21.75-.74.83v-4c0-.52-.23-.75-.75-.75H6.66A.62.62,0,0,0,6,5.38V9.61c0,.52-.06.59-.55.73l-.2,0V6.89c0-.53-.21-.74-.74-.74H3.73a.59.59,0,0,0-.63.63v3.44c0,.43-.13.56-.54.62L2,10.89a.77.77,0,0,1-.77-.44A6.6,6.6,0,0,1,.32,7.68a.58.58,0,0,0,0-.19V6.64s0-.09,0-.13a6.45,6.45,0,0,1,.81-2.64A6.61,6.61,0,0,1,6,.38,5.74,5.74,0,0,1,6.74.29Z"/></g></g></g></svg>