<svg xmlns="http://www.w3.org/2000/svg" viewBox="0 0 11.58 13.6"><defs><style>.cls-1{fill:#fff;stroke:#fff;stroke-miterlimit:10;stroke-width:0.57px;}</style></defs><g id="Layer_2" data-name="Layer 2"><g id="Layer_1-2" data-name="Layer 1"><g id="dlQzeE"><path class="cls-1" d="M4.4,1.46a7,7,0,0,1,4.3.05A2.78,2.78,0,0,1,10.36.31a2.42,2.42,0,0,1,.15,1.79c-.07.26-.1.46.14.63a.28.28,0,0,1,.11.15,5.07,5.07,0,0,1,.23,4,3.33,3.33,0,0,1-2.6,2L8,9,7.88,9c.61,1.39.22,2.84.36,4.29H4.77V11.68h-1a2.31,2.31,0,0,1-2-1.22C1.39,9.85,1,9.25.57,8.59a2,2,0,0,1,.75.11,2.79,2.79,0,0,1,.81.76,2.09,2.09,0,0,0,2.21,1c.24,0,.42-.11.45-.43a4.77,4.77,0,0,1,.28-1c-.4-.13-.85-.23-1.27-.4a3.1,3.1,0,0,1-2.09-3,4.39,4.39,0,0,1,.36-2.46,1.83,1.83,0,0,0,.29-1.61,1.26,1.26,0,0,1,0-.47c.09-.88.32-1,1.05-.44C3.76.9,4.06,1.18,4.4,1.46Z"/></g></g></g></svg>