<svg xmlns="http://www.w3.org/2000/svg" viewBox="0 0 9.66 11.42"><defs><style>.cls-1{fill:#fff;}</style></defs><g id="Layer_2" data-name="Layer 2"><g id="Layer_1-2" data-name="Layer 1"><path class="cls-1" d="M0,1.82V0H2.18V1.82Zm0,9.6V3.07H2.14v8.35Z"/><path class="cls-1" d="M7.55,11.42v-6a1,1,0,0,0-.21-.7.74.74,0,0,0-.6-.24,1.23,1.23,0,0,0-.89.36,1.13,1.13,0,0,0-.38.84v5.77H3.36V3.07H5.41V4a2.93,2.93,0,0,1,1-.86,2.36,2.36,0,0,1,1.16-.3,2,2,0,0,1,1.56.63,2.53,2.53,0,0,1,.56,1.73v6.24Z"/></g></g></svg>