<svg xmlns="http://www.w3.org/2000/svg" viewBox="0 0 11.82 9.57"><defs><style>.cls-1{fill:#fff;stroke:#fff;stroke-miterlimit:10;stroke-width:0.57px;}</style></defs><g id="Layer_2" data-name="Layer 2"><g id="Layer_1-2" data-name="Layer 1"><path class="cls-1" d="M1,.7A7.18,7.18,0,0,0,5.31,3a12.24,12.24,0,0,1,.33-1.2A2.36,2.36,0,0,1,9,.6a10.17,10.17,0,0,0,1.67.57l-.2.54.77-.1c-.12.2-.16.35-.26.41a2.34,2.34,0,0,0-1,1.9C9.42,8.45,4.82,10.66.71,8.37l2.7-.87c-1.74-1-2-1.36-1.36-1.84A6.77,6.77,0,0,1,1,4.53c-.17-.3-1-.74,0-1.15.06,0-.11-.51-.11-.78C.9,2,1,1.48,1,.7Z"/></g></g></svg>